PathFileType	4	(X/Y/Z)	..\data\2014031\dynamic\2014031_C5_05.trc
DataRate	CameraRate	NumFrames	NumMarkers	Units	OrigDataRate	OrigDataStartFrame	OrigNumFrames
100.000000	100.000000	4	52	mm	100.000000	38	153
Frame#	Time	L_IAS			L_IPS			R_IPS			R_IAS			L_FTC			L_FLE			L_FME			L_FAX			L_TTC			L_FAL			L_TAM			L_FCC			L_FM1			L_FM2			L_FM5			R_FTC			R_FLE			R_FME			R_FAX			R_TTC			R_FAL			R_TAM			R_FCC			R_FM1			R_FM2			R_FM5			CV7			TV10			SXS			SJN			L_SIA			L_SRS			L_SAA			L_SAE			L_HLE			L_HME			L_UOA			L_RSP			L_UHE			L_HM2			L_HM5			R_SIA			R_SRS			R_SAA			R_SAE			R_HLE			R_HME			R_UOA			R_RSP			R_UHE			R_HM2			R_HM5			
		X1	Y1	Z1	X2	Y2	Z2	X3	Y3	Z3	X4	Y4	Z4	X5	Y5	Z5	X6	Y6	Z6	X7	Y7	Z7	X8	Y8	Z8	X9	Y9	Z9	X10	Y10	Z10	X11	Y11	Z11	X12	Y12	Z12	X13	Y13	Z13	X14	Y14	Z14	X15	Y15	Z15	X16	Y16	Z16	X17	Y17	Z17	X18	Y18	Z18	X19	Y19	Z19	X20	Y20	Z20	X21	Y21	Z21	X22	Y22	Z22	X23	Y23	Z23	X24	Y24	Z24	X25	Y25	Z25	X26	Y26	Z26	X27	Y27	Z27	X28	Y28	Z28	X29	Y29	Z29	X30	Y30	Z30	X31	Y31	Z31	X32	Y32	Z32	X33	Y33	Z33	X34	Y34	Z34	X35	Y35	Z35	X36	Y36	Z36	X37	Y37	Z37	X38	Y38	Z38	X39	Y39	Z39	X40	Y40	Z40	X41	Y41	Z41	X42	Y42	Z42	X43	Y43	Z43	X44	Y44	Z44	X45	Y45	Z45	X46	Y46	Z46	X47	Y47	Z47	X48	Y48	Z48	X49	Y49	Z49	X50	Y50	Z50	X51	Y51	Z51	X52	Y52	Z52	

39	0.38	298.5175781250001	954.589294433594	-346.9418029785157	101.1419830322266	988.3069458007815	-287.7351379394532	101.3042373657227	977.668640136719	-181.4411163330078	290.4879455566407	953.4072265625002	-121.3628234863282	192.4829864501954	883.5891723632815	-425.0128784179689	149.601791381836	465.5046386718751	-371.6620178222657	139.5291137695313	465.4523010253907	-241.4185333251954	128.7140197753907	406.8036499023439	-370.5124511718751	185.8019104003907	401.9629516601564	-307.0682983398438	46.93468093872071	71.6658172607422	-324.6370239257813	71.1597137451172	86.96569061279298	-234.0426025390626	-1.9600168466568	26.2061939239502	-278.6672363281251	192.0344848632813	18.25837135314942	-239.4959411621094	201.6471710205079	33.35033035278321	-298.4916687011719	155.6228637695313	21.75828742980957	-352.1903991699219	221.2808380126954	861.7190551757815	-52.22745895385744	391.1798706054689	496.1830139160157	-97.10766601562503	413.0784301757814	493.7024230957032	-222.7669525146485	386.9478759765626	440.0269775390626	-96.41875457763675	454.3620910644532	437.4108886718751	-145.341064453125	309.9649963378907	106.7665786743164	-138.598129272461	357.3782653808594	121.6596984863282	-218.6722717285157	276.4065551757813	59.22195434570314	-197.1495971679688	463.4587402343751	41.82009887695313	-187.830551147461	459.7859802246095	55.96969604492189	-132.2854614257813	409.4430236816407	34.14942932128907	-94.38710021972658	178.4483947753907	1502.350341796875	-225.8989715576172	94.80911254882814	1226.742065429688	-243.3888702392579	314.3009033203126	1216.886840820313	-230.9027252197266	290.3278503417969	1411.8505859375	-228.6341552734376	101.9827270507813	1260.5048828125	-358.9589843750001	146.0582580566407	1412.30322265625	-369.8059997558594	199.9412536621094	1407.316772460938	-428.381805419922	245.2543945312501	1411.03173828125	-424.1757202148439	278.7220153808594	1081.03515625	-508.0234680175782	242.4386138916016	1047.515747070313	-434.8722229003907	250.5797271728516	1038.57177734375	-487.2534179687501	479.651336669922	920.9234619140627	-404.719696044922	462.3857421875001	897.5595703125002	-481.5011596679689	548.1930541992189	862.5234375000002	-399.2785949707032	495.2402954101564	828.2564697265627	-477.6262207031251	82.65943908691408	1257.340576171875	-145.5619506835938	131.5834655761719	1411.343627929688	-111.7832107543946	181.4125213623047	1407.051391601563	-47.89505004882813	224.1664581298829	1396.727661132813	-29.24251365661622	145.3230590820313	1066.628051757813	29.98193550109864	119.5202331542969	1054.720458984375	-50.31428527832033	103.7182159423828	1044.251708984375	-9.014107704162599	260.2866516113282	833.7709960937502	-6.428382396698	210.6166992187501	822.002380371094	54.40047454833986	288.9380798339844	742.6514892578126	-6.588392257690431	208.1699829101563	736.7958374023439	53.82867431640626	
40	0.39	312.2115478515626	951.9682617187502	-347.8110046386719	115.3455429077149	986.4009399414065	-286.7447814941407	116.7946319580078	974.9697875976565	-180.664306640625	306.4269104003907	950.6932373046877	-122.1837005615235	204.810043334961	882.004089355469	-424.882537841797	154.4838562011719	465.072723388672	-371.9522705078126	145.5191802978516	465.216033935547	-241.6893157958985	132.7207336425782	406.7149353027345	-370.6216735839844	190.0365447998047	401.0506286621095	-307.6595458984376	47.32781982421876	72.4266815185547	-323.7443237304688	72.30072021484376	87.77291107177736	-233.4542541503907	-1.617157816886902	27.32621574401856	-277.5126647949219	192.3663787841797	18.40092086791993	-239.5477142333985	201.6330871582032	33.28268814086915	-298.4284057617188	155.3129577636719	22.0323486328125	-351.8348999023438	237.7534790039063	859.2952880859377	-52.57011795043947	410.0612182617189	494.7998352050782	-96.67412567138675	429.7567443847657	491.2348022460939	-222.6007385253907	408.9543457031251	438.0111694335939	-95.81817626953126	475.7365112304689	438.931365966797	-145.2711486816407	357.3413696289063	100.1664276123047	-136.7118530273438	403.026824951172	117.9284973144532	-216.8667144775391	327.6853942871094	49.53216552734376	-195.1068115234376	514.9160766601564	46.94772720336915	-186.2369232177735	510.3684692382814	60.86783599853517	-130.7572174072266	462.141571044922	35.93328857421876	-92.58897399902345	194.4068450927735	1500.040405273438	-225.0086822509766	109.8289031982422	1224.727172851563	-243.0562896728516	329.6633605957032	1214.271240234375	-231.4841461181641	306.0775756835938	1409.2744140625	-228.3434753417969	117.2260208129883	1258.371459960938	-358.8314514160157	161.0299224853516	1410.277587890625	-369.2705383300782	214.9007415771485	1405.559204101563	-428.0388183593751	260.0744628906251	1409.497924804688	-423.6410522460939	299.5762939453126	1080.831909179688	-508.8450927734376	263.8664855957032	1046.037841796875	-435.512176513672	272.6872863769532	1036.933349609375	-488.1859436035157	507.0992736816407	932.4072875976565	-401.6366577148439	491.7495422363282	906.8227539062502	-478.0783691406251	578.8005981445314	878.213562011719	-394.4814453125001	528.4250488281251	839.4107055664065	-472.4822387695314	97.97270965576175	1254.670043945313	-146.0956726074219	147.5215759277344	1408.696044921875	-111.5834655761719	197.1064453125001	1404.030151367188	-47.51909255981446	239.7078247070313	1393.5673828125	-28.7794589996338	155.328109741211	1064.754028320313	29.44164466857911	130.6890411376953	1053.225830078125	-51.14720153808595	113.9431228637696	1043.2685546875	-10.14389324188233	264.4387207031251	828.6685180664065	-3.660145521163941	213.1275329589844	818.6810302734377	56.18925857543947	290.6293945312501	736.9236450195314	-2.268204689025879	208.3265686035157	733.5708618164064	56.15567779541017	
41	0.4	325.8775939941407	949.1680908203127	-348.6658630371094	129.7812194824219	984.2049560546877	-285.5734252929688	132.4255676269532	971.9984130859377	-179.7887573242188	322.5057678222657	947.6550292968752	-122.9461898803711	217.1763763427735	880.3098754882815	-424.6647338867189	159.8469543457032	464.6250915527345	-372.1705932617188	152.0736541748047	464.9300842285157	-241.8727569580079	137.1846923828125	406.6206970214845	-370.6609802246094	194.7337951660157	400.0957641601564	-308.1951599121094	47.76696395874024	73.30195617675783	-322.8651428222657	73.49471282958986	88.66613006591798	-232.8911132812501	-1.284883260726929	28.62676620483399	-276.4132995605469	192.7313995361329	18.56983184814453	-239.6230926513672	201.6399230957032	33.20916748046876	-298.3854370117188	155.0424499511719	22.32378959655762	-351.4881286621094	254.1656036376954	856.375427246094	-52.92381286621095	428.353729248047	492.9089355468751	-96.09487915039065	445.6768188476564	487.9523315429689	-222.3311004638672	430.4083557128907	435.6818847656251	-95.05345916748048	496.313201904297	439.9465942382814	-145.1978302001953	404.1636657714845	94.88032531738283	-134.5453033447266	447.669647216797	115.3702850341797	-214.848373413086	378.3643188476563	41.37215042114259	-192.7138977050782	564.8419189453126	53.51597595214845	-184.8540954589844	559.6932983398439	67.10135650634767	-129.4174041748047	513.9008789062501	39.17999267578126	-90.85437774658205	210.4240875244141	1497.497680664063	-224.0494079589844	124.8977432250977	1222.4951171875	-242.5227203369141	345.0651550292969	1211.440795898438	-231.9987335205079	321.8960571289063	1406.46484375	-228.0163269042969	132.4278106689453	1255.992309570313	-358.4861450195313	176.0570678710938	1408.01123046875	-368.6537170410157	229.8992156982422	1403.524780273438	-427.6353149414064	274.9839782714844	1407.672973632813	-423.042205810547	320.2874450683594	1080.423217773438	-509.5691223144532	285.1409912109376	1044.375732421875	-436.0971679687501	294.6399841308594	1035.156494140625	-489.0191955566407	533.6318969726564	943.9692993164065	-398.6721801757814	520.3359375000001	916.3326416015627	-474.7467651367189	608.3389282226564	894.328063964844	-389.9813232421876	560.8627319335939	851.127136230469	-467.5467529296876	113.4037857055664	1251.707397460938	-146.3960418701172	163.5834503173828	1405.786499023438	-111.2465057373047	212.9627685546876	1400.748291015625	-47.02243423461915	255.4539337158204	1390.151977539063	-28.24106597900391	165.6525268554688	1062.703491210938	28.94349670410157	142.1004791259766	1051.533569335938	-51.90869140625001	124.499870300293	1042.088012695313	-11.20903301239014	268.7279052734376	823.6047973632815	-1.053407073020935	215.9489746093751	815.4422607421877	57.861629486084	292.4967346191407	731.3295288085939	1.850149989128113	208.8389434814454	730.4923095703126	58.35966110229494	
42	0.41	339.5695495605469	946.261901855469	-349.5348205566407	144.4704284667969	981.7583618164065	-284.2205200195313	148.21142578125	968.8128662109377	-178.8048858642578	338.7457275390626	944.3789062500002	-123.6711730957032	229.6229400634766	878.5284423828127	-424.3518676757814	165.7412414550782	464.1737060546876	-372.3173217773438	159.2025146484375	464.6104736328126	-241.964096069336	142.1520538330078	406.5305175781251	-370.6373901367188	199.9266204833985	399.110076904297	-308.6604919433594	48.26439285278322	74.32106018066408	-322.0534667968751	74.71910095214845	89.66468811035158	-232.3882446289063	-0.9790949225425722	30.1371192932129	-275.4376220703126	193.1315307617188	18.75421714782715	-239.7255249023438	201.6932983398438	33.13606643676759	-298.3734130859376	154.8446502685547	22.61801528930664	-351.1733703613282	270.5887451171876	853.062194824219	-53.26309967041017	446.1755676269532	490.6260070800782	-95.39043426513673	461.0001525878907	484.0390625000001	-221.9726257324219	451.346405029297	433.1264648437501	-94.15618133544923	516.1705322265626	440.5033569335939	-145.1390838623047	449.8555297851564	90.85189819335939	-132.1924743652344	490.8196716308595	113.8877639770508	-212.7167205810547	427.7587890625001	34.73146057128907	-190.0750885009766	612.6954345703126	61.2166213989258	-183.7976531982422	607.2274780273439	74.35517883300783	-128.382568359375	564.1176757812501	43.59851837158204	-89.3213577270508	226.4979553222657	1494.776123046875	-223.0114135742188	140.0340423583985	1220.095458984375	-241.7967681884766	360.5119323730469	1208.4482421875	-232.4403381347657	337.7880249023438	1403.48095703125	-227.6459960937501	147.5985260009766	1253.439819335938	-357.9262084960938	191.1484069824219	1405.568969726563	-367.9449157714844	244.9497070312501	1401.287109375	-427.155731201172	290.0030517578126	1405.628173828125	-422.3667602539064	340.8426818847657	1079.857543945313	-510.1790466308595	306.2564392089844	1042.57861328125	-436.6194763183595	316.4154052734376	1033.29443359375	-489.7407226562501	559.2227172851564	955.5213623046877	-395.857391357422	548.0731201171876	926.014343261719	-471.5370483398439	636.7227783203126	910.750671386719	-385.8517150878907	592.4342651367189	863.3282470703127	-462.8706970214845	128.9464569091797	1248.538696289063	-146.4328308105469	179.7760467529297	1402.680908203125	-110.7582244873047	228.9940338134766	1397.272583007813	-46.40243148803712	271.4139709472657	1386.547973632813	-27.62754058837891	176.32373046875	1060.535278320313	28.49631500244141	153.7788238525391	1049.703369140625	-52.59424972534181	135.4134979248047	1040.768188476563	-12.19546222686768	273.2090454101563	818.640319824219	1.360464930534363	219.1699523925782	812.3389892578127	59.42304992675783	294.5762939453126	725.8977661132814	5.687030315399171	209.7795715332032	727.6106567382814	60.44686508178712	
